<svg xmlns="http://www.w3.org/2000/svg" xmlns:xlink="http://www.w3.org/1999/xlink" width="462" zoomAndPan="magnify" viewBox="0 0 346.5 74.999997" height="100" preserveAspectRatio="xMidYMid meet" version="1.0"><defs><g/><clipPath id="7559f2becb"><path d="M 5 18 L 56.917969 18 L 56.917969 74.65625 L 5 74.65625 Z M 5 18 " clip-rule="nonzero"/></clipPath><clipPath id="85cf2bca3c"><path d="M -42.597656 10.375 L 23.210938 114.074219 L 102.886719 63.511719 L 37.074219 -40.1875 Z M -42.597656 10.375 " clip-rule="nonzero"/></clipPath><clipPath id="800cdfcef7"><path d="M 0 0.515625 L 55 0.515625 L 55 56 L 0 56 Z M 0 0.515625 " clip-rule="nonzero"/></clipPath><clipPath id="2456872100"><path d="M -42.597656 10.375 L 23.210938 114.074219 L 102.886719 63.511719 L 37.074219 -40.1875 Z M -42.597656 10.375 " clip-rule="nonzero"/></clipPath></defs><g clip-path="url(#7559f2becb)"><g clip-path="url(#85cf2bca3c)"><path fill="#f4ca44" d="M 67.746094 65.488281 L 85.589844 74.835938 L 70.855469 84.1875 L 53.011719 74.839844 L 14.863281 99.046875 L 5.511719 84.3125 L 20.25 74.957031 L 35.105469 65.527344 L 49.84375 56.175781 L 64.945312 46.59375 L 29.496094 28 L 44.234375 18.648438 L 56.382812 25.058594 L 79.742188 37.203125 L 87.386719 41.199219 L 92.734375 49.628906 Z M 67.746094 65.488281 " fill-opacity="1" fill-rule="evenodd"/></g></g><g clip-path="url(#800cdfcef7)"><g clip-path="url(#2456872100)"><path fill="#f6f3e4" d="M -7.414062 8.714844 L -25.316406 -0.59375 L -10.578125 -9.945312 L 7.324219 -0.636719 L 45.472656 -24.84375 L 54.824219 -10.109375 L 40.027344 -0.71875 L 25.167969 8.710938 L 10.429688 18.066406 L -4.671875 27.648438 L 30.839844 46.203125 L 16.101562 55.554688 L 3.929688 49.242188 L -19.410156 37 L -27.050781 33.003906 L -32.398438 24.574219 Z M -7.414062 8.714844 " fill-opacity="1" fill-rule="evenodd"/></g></g><g fill="#f6f3e4" fill-opacity="1"><g transform="translate(80.960119, 48.654607)"><g><path d="M 16.046875 -6.21875 C 16.046875 -4.195312 15.316406 -2.601562 13.859375 -1.4375 C 12.398438 -0.269531 10.375 0.3125 7.78125 0.3125 C 5.394531 0.3125 3.28125 -0.140625 1.4375 -1.046875 L 1.4375 -5.453125 C 2.945312 -4.773438 4.222656 -4.300781 5.265625 -4.03125 C 6.316406 -3.757812 7.28125 -3.625 8.15625 -3.625 C 9.195312 -3.625 9.992188 -3.820312 10.546875 -4.21875 C 11.109375 -4.613281 11.390625 -5.207031 11.390625 -6 C 11.390625 -6.4375 11.265625 -6.820312 11.015625 -7.15625 C 10.773438 -7.5 10.414062 -7.828125 9.9375 -8.140625 C 9.46875 -8.460938 8.5 -8.972656 7.03125 -9.671875 C 5.664062 -10.316406 4.640625 -10.9375 3.953125 -11.53125 C 3.265625 -12.125 2.71875 -12.8125 2.3125 -13.59375 C 1.90625 -14.382812 1.703125 -15.304688 1.703125 -16.359375 C 1.703125 -18.335938 2.375 -19.894531 3.71875 -21.03125 C 5.0625 -22.164062 6.914062 -22.734375 9.28125 -22.734375 C 10.445312 -22.734375 11.554688 -22.59375 12.609375 -22.3125 C 13.671875 -22.039062 14.78125 -21.65625 15.9375 -21.15625 L 14.40625 -17.453125 C 13.207031 -17.941406 12.21875 -18.285156 11.4375 -18.484375 C 10.65625 -18.679688 9.890625 -18.78125 9.140625 -18.78125 C 8.234375 -18.78125 7.539062 -18.566406 7.0625 -18.140625 C 6.582031 -17.722656 6.34375 -17.175781 6.34375 -16.5 C 6.34375 -16.082031 6.4375 -15.71875 6.625 -15.40625 C 6.820312 -15.09375 7.132812 -14.789062 7.5625 -14.5 C 7.988281 -14.21875 8.992188 -13.695312 10.578125 -12.9375 C 12.671875 -11.9375 14.101562 -10.929688 14.875 -9.921875 C 15.65625 -8.921875 16.046875 -7.6875 16.046875 -6.21875 Z M 16.046875 -6.21875 "/></g></g></g><g fill="#f6f3e4" fill-opacity="1"><g transform="translate(98.246057, 48.654607)"><g><path d="M 13.328125 0 L 12.4375 -2.328125 L 12.3125 -2.328125 C 11.519531 -1.335938 10.707031 -0.648438 9.875 -0.265625 C 9.039062 0.117188 7.957031 0.3125 6.625 0.3125 C 4.976562 0.3125 3.679688 -0.15625 2.734375 -1.09375 C 1.785156 -2.039062 1.3125 -3.382812 1.3125 -5.125 C 1.3125 -6.9375 1.945312 -8.273438 3.21875 -9.140625 C 4.5 -10.003906 6.421875 -10.484375 8.984375 -10.578125 L 11.953125 -10.671875 L 11.953125 -11.421875 C 11.953125 -13.160156 11.0625 -14.03125 9.28125 -14.03125 C 7.914062 -14.03125 6.304688 -13.613281 4.453125 -12.78125 L 2.90625 -15.9375 C 4.882812 -16.96875 7.070312 -17.484375 9.46875 -17.484375 C 11.769531 -17.484375 13.53125 -16.984375 14.75 -15.984375 C 15.976562 -14.984375 16.59375 -13.460938 16.59375 -11.421875 L 16.59375 0 Z M 11.953125 -7.9375 L 10.140625 -7.875 C 8.785156 -7.832031 7.773438 -7.585938 7.109375 -7.140625 C 6.441406 -6.691406 6.109375 -6.007812 6.109375 -5.09375 C 6.109375 -3.769531 6.867188 -3.109375 8.390625 -3.109375 C 9.472656 -3.109375 10.335938 -3.421875 10.984375 -4.046875 C 11.628906 -4.671875 11.953125 -5.5 11.953125 -6.53125 Z M 11.953125 -7.9375 "/></g></g></g><g fill="#f6f3e4" fill-opacity="1"><g transform="translate(117.202357, 48.654607)"><g><path d="M 12.015625 -17.453125 C 12.648438 -17.453125 13.175781 -17.40625 13.59375 -17.3125 L 13.25 -12.9375 C 12.863281 -13.039062 12.398438 -13.09375 11.859375 -13.09375 C 10.367188 -13.09375 9.207031 -12.707031 8.375 -11.9375 C 7.539062 -11.175781 7.125 -10.101562 7.125 -8.71875 L 7.125 0 L 2.453125 0 L 2.453125 -17.140625 L 6 -17.140625 L 6.6875 -14.25 L 6.90625 -14.25 C 7.4375 -15.21875 8.15625 -15.992188 9.0625 -16.578125 C 9.96875 -17.160156 10.953125 -17.453125 12.015625 -17.453125 Z M 12.015625 -17.453125 "/></g></g></g><g fill="#f6f3e4" fill-opacity="1"><g transform="translate(131.454062, 48.654607)"><g><path d="M 13.328125 0 L 12.4375 -2.328125 L 12.3125 -2.328125 C 11.519531 -1.335938 10.707031 -0.648438 9.875 -0.265625 C 9.039062 0.117188 7.957031 0.3125 6.625 0.3125 C 4.976562 0.3125 3.679688 -0.15625 2.734375 -1.09375 C 1.785156 -2.039062 1.3125 -3.382812 1.3125 -5.125 C 1.3125 -6.9375 1.945312 -8.273438 3.21875 -9.140625 C 4.5 -10.003906 6.421875 -10.484375 8.984375 -10.578125 L 11.953125 -10.671875 L 11.953125 -11.421875 C 11.953125 -13.160156 11.0625 -14.03125 9.28125 -14.03125 C 7.914062 -14.03125 6.304688 -13.613281 4.453125 -12.78125 L 2.90625 -15.9375 C 4.882812 -16.96875 7.070312 -17.484375 9.46875 -17.484375 C 11.769531 -17.484375 13.53125 -16.984375 14.75 -15.984375 C 15.976562 -14.984375 16.59375 -13.460938 16.59375 -11.421875 L 16.59375 0 Z M 11.953125 -7.9375 L 10.140625 -7.875 C 8.785156 -7.832031 7.773438 -7.585938 7.109375 -7.140625 C 6.441406 -6.691406 6.109375 -6.007812 6.109375 -5.09375 C 6.109375 -3.769531 6.867188 -3.109375 8.390625 -3.109375 C 9.472656 -3.109375 10.335938 -3.421875 10.984375 -4.046875 C 11.628906 -4.671875 11.953125 -5.5 11.953125 -6.53125 Z M 11.953125 -7.9375 "/></g></g></g><g fill="#f6f3e4" fill-opacity="1"><g transform="translate(150.410361, 48.654607)"><g><path d="M 18.265625 0 L 13.59375 0 L 13.59375 -10.015625 C 13.59375 -11.242188 13.375 -12.164062 12.9375 -12.78125 C 12.5 -13.40625 11.800781 -13.71875 10.84375 -13.71875 C 9.53125 -13.71875 8.582031 -13.28125 8 -12.40625 C 7.414062 -11.53125 7.125 -10.082031 7.125 -8.0625 L 7.125 0 L 2.453125 0 L 2.453125 -17.140625 L 6.03125 -17.140625 L 6.65625 -14.9375 L 6.90625 -14.9375 C 7.425781 -15.769531 8.144531 -16.394531 9.0625 -16.8125 C 9.976562 -17.238281 11.019531 -17.453125 12.1875 -17.453125 C 14.175781 -17.453125 15.6875 -16.910156 16.71875 -15.828125 C 17.75 -14.753906 18.265625 -13.203125 18.265625 -11.171875 Z M 18.265625 0 "/></g></g></g><g fill="#f4ca44" fill-opacity="1"><g transform="translate(171.041066, 48.654607)"><g><path d="M 16.046875 -6.21875 C 16.046875 -4.195312 15.316406 -2.601562 13.859375 -1.4375 C 12.398438 -0.269531 10.375 0.3125 7.78125 0.3125 C 5.394531 0.3125 3.28125 -0.140625 1.4375 -1.046875 L 1.4375 -5.453125 C 2.945312 -4.773438 4.222656 -4.300781 5.265625 -4.03125 C 6.316406 -3.757812 7.28125 -3.625 8.15625 -3.625 C 9.195312 -3.625 9.992188 -3.820312 10.546875 -4.21875 C 11.109375 -4.613281 11.390625 -5.207031 11.390625 -6 C 11.390625 -6.4375 11.265625 -6.820312 11.015625 -7.15625 C 10.773438 -7.5 10.414062 -7.828125 9.9375 -8.140625 C 9.46875 -8.460938 8.5 -8.972656 7.03125 -9.671875 C 5.664062 -10.316406 4.640625 -10.9375 3.953125 -11.53125 C 3.265625 -12.125 2.71875 -12.8125 2.3125 -13.59375 C 1.90625 -14.382812 1.703125 -15.304688 1.703125 -16.359375 C 1.703125 -18.335938 2.375 -19.894531 3.71875 -21.03125 C 5.0625 -22.164062 6.914062 -22.734375 9.28125 -22.734375 C 10.445312 -22.734375 11.554688 -22.59375 12.609375 -22.3125 C 13.671875 -22.039062 14.78125 -21.65625 15.9375 -21.15625 L 14.40625 -17.453125 C 13.207031 -17.941406 12.21875 -18.285156 11.4375 -18.484375 C 10.65625 -18.679688 9.890625 -18.78125 9.140625 -18.78125 C 8.234375 -18.78125 7.539062 -18.566406 7.0625 -18.140625 C 6.582031 -17.722656 6.34375 -17.175781 6.34375 -16.5 C 6.34375 -16.082031 6.4375 -15.71875 6.625 -15.40625 C 6.820312 -15.09375 7.132812 -14.789062 7.5625 -14.5 C 7.988281 -14.21875 8.992188 -13.695312 10.578125 -12.9375 C 12.671875 -11.9375 14.101562 -10.929688 14.875 -9.921875 C 15.65625 -8.921875 16.046875 -7.6875 16.046875 -6.21875 Z M 16.046875 -6.21875 "/></g></g></g><g fill="#f4ca44" fill-opacity="1"><g transform="translate(188.327004, 48.654607)"><g><path d="M 9.546875 -14.125 C 8.554688 -14.125 7.78125 -13.8125 7.21875 -13.1875 C 6.65625 -12.5625 6.332031 -11.671875 6.25 -10.515625 L 12.8125 -10.515625 C 12.789062 -11.671875 12.488281 -12.5625 11.90625 -13.1875 C 11.320312 -13.8125 10.535156 -14.125 9.546875 -14.125 Z M 10.203125 0.3125 C 7.441406 0.3125 5.285156 -0.445312 3.734375 -1.96875 C 2.179688 -3.5 1.40625 -5.660156 1.40625 -8.453125 C 1.40625 -11.316406 2.125 -13.53125 3.5625 -15.09375 C 5 -16.664062 6.984375 -17.453125 9.515625 -17.453125 C 11.941406 -17.453125 13.828125 -16.757812 15.171875 -15.375 C 16.523438 -14 17.203125 -12.097656 17.203125 -9.671875 L 17.203125 -7.40625 L 6.140625 -7.40625 C 6.191406 -6.070312 6.585938 -5.03125 7.328125 -4.28125 C 8.066406 -3.539062 9.097656 -3.171875 10.421875 -3.171875 C 11.453125 -3.171875 12.425781 -3.273438 13.34375 -3.484375 C 14.269531 -3.703125 15.234375 -4.046875 16.234375 -4.515625 L 16.234375 -0.90625 C 15.410156 -0.5 14.535156 -0.195312 13.609375 0 C 12.679688 0.207031 11.546875 0.3125 10.203125 0.3125 Z M 10.203125 0.3125 "/></g></g></g><g fill="#f4ca44" fill-opacity="1"><g transform="translate(206.869544, 48.654607)"><g><path d="M 18.265625 0 L 13.59375 0 L 13.59375 -10.015625 C 13.59375 -12.484375 12.675781 -13.71875 10.84375 -13.71875 C 9.53125 -13.71875 8.582031 -13.269531 8 -12.375 C 7.414062 -11.488281 7.125 -10.050781 7.125 -8.0625 L 7.125 0 L 2.453125 0 L 2.453125 -23.84375 L 7.125 -23.84375 L 7.125 -18.984375 C 7.125 -18.609375 7.085938 -17.722656 7.015625 -16.328125 L 6.90625 -14.9375 L 7.15625 -14.9375 C 8.195312 -16.613281 9.851562 -17.453125 12.125 -17.453125 C 14.132812 -17.453125 15.660156 -16.910156 16.703125 -15.828125 C 17.742188 -14.742188 18.265625 -13.191406 18.265625 -11.171875 Z M 18.265625 0 "/></g></g></g><g fill="#f4ca44" fill-opacity="1"><g transform="translate(227.496205, 48.654607)"><g><path d="M 13.328125 0 L 12.4375 -2.328125 L 12.3125 -2.328125 C 11.519531 -1.335938 10.707031 -0.648438 9.875 -0.265625 C 9.039062 0.117188 7.957031 0.3125 6.625 0.3125 C 4.976562 0.3125 3.679688 -0.15625 2.734375 -1.09375 C 1.785156 -2.039062 1.3125 -3.382812 1.3125 -5.125 C 1.3125 -6.9375 1.945312 -8.273438 3.21875 -9.140625 C 4.5 -10.003906 6.421875 -10.484375 8.984375 -10.578125 L 11.953125 -10.671875 L 11.953125 -11.421875 C 11.953125 -13.160156 11.0625 -14.03125 9.28125 -14.03125 C 7.914062 -14.03125 6.304688 -13.613281 4.453125 -12.78125 L 2.90625 -15.9375 C 4.882812 -16.96875 7.070312 -17.484375 9.46875 -17.484375 C 11.769531 -17.484375 13.53125 -16.984375 14.75 -15.984375 C 15.976562 -14.984375 16.59375 -13.460938 16.59375 -11.421875 L 16.59375 0 Z M 11.953125 -7.9375 L 10.140625 -7.875 C 8.785156 -7.832031 7.773438 -7.585938 7.109375 -7.140625 C 6.441406 -6.691406 6.109375 -6.007812 6.109375 -5.09375 C 6.109375 -3.769531 6.867188 -3.109375 8.390625 -3.109375 C 9.472656 -3.109375 10.335938 -3.421875 10.984375 -4.046875 C 11.628906 -4.671875 11.953125 -5.5 11.953125 -6.53125 Z M 11.953125 -7.9375 "/></g></g></g><g fill="#f4ca44" fill-opacity="1"><g transform="translate(246.452505, 48.654607)"><g><path d="M 9.671875 -3.421875 C 10.484375 -3.421875 11.460938 -3.597656 12.609375 -3.953125 L 12.609375 -0.46875 C 11.441406 0.0507812 10.015625 0.3125 8.328125 0.3125 C 6.453125 0.3125 5.085938 -0.160156 4.234375 -1.109375 C 3.378906 -2.054688 2.953125 -3.472656 2.953125 -5.359375 L 2.953125 -13.625 L 0.71875 -13.625 L 0.71875 -15.609375 L 3.296875 -17.171875 L 4.640625 -20.78125 L 7.640625 -20.78125 L 7.640625 -17.140625 L 12.4375 -17.140625 L 12.4375 -13.625 L 7.640625 -13.625 L 7.640625 -5.359375 C 7.640625 -4.703125 7.820312 -4.210938 8.1875 -3.890625 C 8.5625 -3.578125 9.054688 -3.421875 9.671875 -3.421875 Z M 9.671875 -3.421875 "/></g></g></g><g fill="#f6f3e4" fill-opacity="1"><g transform="translate(260.08055, 48.654607)"><g><path d="M 1.796875 -2.1875 C 1.796875 -3.050781 2.023438 -3.703125 2.484375 -4.140625 C 2.941406 -4.578125 3.609375 -4.796875 4.484375 -4.796875 C 5.335938 -4.796875 5.992188 -4.570312 6.453125 -4.125 C 6.921875 -3.675781 7.15625 -3.03125 7.15625 -2.1875 C 7.15625 -1.382812 6.921875 -0.75 6.453125 -0.28125 C 5.984375 0.175781 5.328125 0.40625 4.484375 0.40625 C 3.628906 0.40625 2.96875 0.179688 2.5 -0.265625 C 2.03125 -0.722656 1.796875 -1.363281 1.796875 -2.1875 Z M 1.796875 -2.1875 "/></g></g></g><g fill="#f6f3e4" fill-opacity="1"><g transform="translate(269.030008, 48.654607)"><g><path d="M 9.40625 0.3125 C 4.070312 0.3125 1.40625 -2.613281 1.40625 -8.46875 C 1.40625 -11.382812 2.128906 -13.609375 3.578125 -15.140625 C 5.035156 -16.679688 7.117188 -17.453125 9.828125 -17.453125 C 11.804688 -17.453125 13.582031 -17.066406 15.15625 -16.296875 L 13.78125 -12.671875 C 13.039062 -12.972656 12.351562 -13.21875 11.71875 -13.40625 C 11.09375 -13.59375 10.460938 -13.6875 9.828125 -13.6875 C 7.390625 -13.6875 6.171875 -11.957031 6.171875 -8.5 C 6.171875 -5.15625 7.390625 -3.484375 9.828125 -3.484375 C 10.722656 -3.484375 11.550781 -3.601562 12.3125 -3.84375 C 13.082031 -4.082031 13.851562 -4.457031 14.625 -4.96875 L 14.625 -0.96875 C 13.863281 -0.488281 13.097656 -0.15625 12.328125 0.03125 C 11.554688 0.21875 10.582031 0.3125 9.40625 0.3125 Z M 9.40625 0.3125 "/></g></g></g><g fill="#f6f3e4" fill-opacity="1"><g transform="translate(285.166615, 48.654607)"><g><path d="M 6.171875 -8.59375 C 6.171875 -6.894531 6.445312 -5.613281 7 -4.75 C 7.5625 -3.882812 8.472656 -3.453125 9.734375 -3.453125 C 10.984375 -3.453125 11.878906 -3.878906 12.421875 -4.734375 C 12.972656 -5.597656 13.25 -6.882812 13.25 -8.59375 C 13.25 -10.289062 12.972656 -11.5625 12.421875 -12.40625 C 11.867188 -13.257812 10.960938 -13.6875 9.703125 -13.6875 C 8.453125 -13.6875 7.550781 -13.265625 7 -12.421875 C 6.445312 -11.578125 6.171875 -10.300781 6.171875 -8.59375 Z M 18.03125 -8.59375 C 18.03125 -5.8125 17.289062 -3.628906 15.8125 -2.046875 C 14.34375 -0.472656 12.296875 0.3125 9.671875 0.3125 C 8.023438 0.3125 6.570312 -0.046875 5.3125 -0.765625 C 4.0625 -1.492188 3.097656 -2.53125 2.421875 -3.875 C 1.742188 -5.226562 1.40625 -6.800781 1.40625 -8.59375 C 1.40625 -11.394531 2.132812 -13.570312 3.59375 -15.125 C 5.0625 -16.675781 7.117188 -17.453125 9.765625 -17.453125 C 11.410156 -17.453125 12.859375 -17.09375 14.109375 -16.375 C 15.367188 -15.664062 16.335938 -14.640625 17.015625 -13.296875 C 17.691406 -11.960938 18.03125 -10.394531 18.03125 -8.59375 Z M 18.03125 -8.59375 "/></g></g></g><g fill="#f6f3e4" fill-opacity="1"><g transform="translate(304.597971, 48.654607)"><g><path d="M 17.796875 0 L 13.125 0 L 13.125 -10.015625 C 13.125 -11.242188 12.914062 -12.164062 12.5 -12.78125 C 12.082031 -13.40625 11.429688 -13.71875 10.546875 -13.71875 C 9.347656 -13.71875 8.476562 -13.273438 7.9375 -12.390625 C 7.394531 -11.515625 7.125 -10.070312 7.125 -8.0625 L 7.125 0 L 2.453125 0 L 2.453125 -17.140625 L 6.03125 -17.140625 L 6.65625 -14.9375 L 6.90625 -14.9375 C 7.375 -15.726562 8.039062 -16.34375 8.90625 -16.78125 C 9.769531 -17.226562 10.765625 -17.453125 11.890625 -17.453125 C 14.453125 -17.453125 16.191406 -16.613281 17.109375 -14.9375 L 17.515625 -14.9375 C 17.972656 -15.738281 18.648438 -16.359375 19.546875 -16.796875 C 20.441406 -17.234375 21.453125 -17.453125 22.578125 -17.453125 C 24.515625 -17.453125 25.984375 -16.953125 26.984375 -15.953125 C 27.984375 -14.960938 28.484375 -13.367188 28.484375 -11.171875 L 28.484375 0 L 23.78125 0 L 23.78125 -10.015625 C 23.78125 -11.242188 23.570312 -12.164062 23.15625 -12.78125 C 22.75 -13.40625 22.101562 -13.71875 21.21875 -13.71875 C 20.070312 -13.71875 19.210938 -13.304688 18.640625 -12.484375 C 18.078125 -11.671875 17.796875 -10.375 17.796875 -8.59375 Z M 17.796875 0 "/></g></g></g></svg>